<svg xmlns="http://www.w3.org/2000/svg" width="43.41" height="42.012" viewBox="0 0 43.41 42.012"><path d="M-755.538,73.758c0,4.488-.055,8.607.025,12.751.04,2.1-.763,2.992-2.907,3.042-5.954.135-5.949.194-5.954-5.7,0-3.157-.03-6.313-.055-9.475a2.283,2.283,0,0,0-.239-.6c-2.932.4-3.326-1.376-3.241-3.8.12-3.65.065-7.311,0-10.971,0-1.995.773-2.952,2.833-2.753,11.145,1.077,20.989-2.828,30.5-7.979,2.493-1.351,3.461-.753,3.491,2.084a27.1,27.1,0,0,1,0,3.491c-.364,3.052-.07,5.545,3.78,5.984.529.065,1.3,1.1,1.341,1.73a42.552,42.552,0,0,1,0,6.717,3.056,3.056,0,0,1-1.5,1.92,22.093,22.093,0,0,1-3.615,1.321v7.979c0,2.992-1,3.62-3.62,2.164A72.987,72.987,0,0,0-755.538,73.758Zm1.7-3.65,19.109,7.1V52.773l-19.109,7.076Zm-3.67.045V59.895h-6.762V70.152Zm-1.5,3.77-.583-.4c-.444.429-1.257.848-1.272,1.292-.1,3.371-.09,6.752,0,10.128,0,.384.583.758.9,1.142.324-.364.923-.723.928-1.092.05-3.69.02-7.38.02-11.071Zm29.068-11.754-.918.259v5.181l.828.2a9.8,9.8,0,0,0,.808-2.7,12.384,12.384,0,0,0-.728-2.942Z" transform="translate(767.92 -47.575)" fill="#fff"/><ellipse cx="5.042" cy="7.53" rx="5.042" ry="7.53" transform="translate(33.327 8.65)" fill="#fff"/></svg>