<svg xmlns="http://www.w3.org/2000/svg" width="137.807" height="158.842" viewBox="0 0 137.807 158.842"><g transform="translate(0)"><path d="M-697.422-121.024c1.338,4.18,2.581,8.052,3.955,12.3-13.179,8.289-27.235,8.289-41.207,4.736-44.014-11.166-75.452-56.021-71.165-101.254.864-9.058,3.126-17.916,9.284-25.127a26.051,26.051,0,0,1,5.684-5.068c6.9-4.4,11.3-3.008,14.423,4.464,1.516,3.635,2.712,7.389,4.18,11.048,1.8,4.512,4.44,8.289,10.053,6.974,5.281-1.267,7.91-4.89,7.235-10.527-.095-.782,0-1.587-.083-2.368-.817-12.54,4.547-17.6,16.838-14.92,15.737,3.422,28.6,11.924,38.934,24.191a7.472,7.472,0,0,1,1.184,4.8c-.272,4.914-.9,9.793-1.528,15.974-11.1-15.512-23.789-27.614-42.38-33.274.7,15.263-4.251,26.24-20.947,27.815-11.948,1.184-15.393-1.906-24.866-20.758-1.658,4.985-4.1,9.864-4.843,14.991-6.169,42.32,25.8,85.706,68.039,92.361C-715.053-113.031-705.959-115.482-697.422-121.024Z" transform="translate(806.23 260.572)" fill="#03d5b2"/><path d="M-695.024-109.7h-7.6c-.592-6.986-1.587-13.937-1.693-20.911-.414-24.784-.557-49.579-.71-74.374,0-2.12.912-4.239,1.066-6.382.26-3.623,2.605-3.718,5.388-3.777s5.021.379,5.4,3.813c.687,6.051,2.368,12.1,2.155,18.105-.829,27.152-2.167,54.28-3.339,81.42a8.433,8.433,0,0,1-.663,2.108Z" transform="translate(824.862 265.415)" fill="#03d5b2"/><path d="M-695.087-257.6c2.96,9.141,5.3,16.968,8.04,24.665,2.9,8.182-3.446,18.685-12.492,17.193-4.038-.663-8.8-5.222-9.26-11.3-.332-4.358-.154-9.378,1.729-13.12C-703.992-246.232-699.326-251.6-695.087-257.6Z" transform="translate(824.144 257.6)" fill="#03d5b2"/><path d="M-738.265-212.119a13.191,13.191,0,0,1,9.652,3.708,13.192,13.192,0,0,1,4.012,9.53,13.748,13.748,0,0,1-3.891,9.872,13.748,13.748,0,0,1-9.761,4.16c-7.1-.071-13.558-6.631-13.617-13.748A13.759,13.759,0,0,1-738.265-212.119Z" transform="translate(816.238 265.972)" fill="#03d5b2"/><path d="M-715.413-149.484a8.289,8.289,0,0,1-2.593,6.035,8.289,8.289,0,0,1-6.17,2.254,8.064,8.064,0,0,1-5.753-2.607,8.064,8.064,0,0,1-2.109-5.954,8.206,8.206,0,0,1,2.487-5.8,8.205,8.205,0,0,1,5.873-2.319,8.668,8.668,0,0,1,8.265,8.4Z" transform="translate(819.887 275.96)" fill="#03d5b2"/><path d="M-758.4-170.674a8.668,8.668,0,0,1-8.431,8.218,8.751,8.751,0,0,1-8.289-8.431,8.111,8.111,0,0,1,2.531-6.092,8.111,8.111,0,0,1,6.22-2.2,8.135,8.135,0,0,1,5.778,2.57,8.135,8.135,0,0,1,2.191,5.932Z" transform="translate(811.957 272.034)" fill="#03d5b2"/><path d="M-769.123-192.1c-.13,4.8-3.493,7.9-8.478,7.815a8.289,8.289,0,0,1-8.289-8.23,8.774,8.774,0,0,1,8.36-8.348,8.407,8.407,0,0,1,6.074,2.587A8.407,8.407,0,0,1-769.123-192.1Z" transform="translate(809.975 268.047)" fill="#03d5b2"/><path d="M-740.409-153.029a8.419,8.419,0,0,1-8.289,8.289,8.111,8.111,0,0,1-5.876-2.265,8.111,8.111,0,0,1-2.484-5.787,8.123,8.123,0,0,1,2.309-6.168,8.123,8.123,0,0,1,6.122-2.429A8.407,8.407,0,0,1-740.409-153.029Z" transform="translate(815.281 275.313)" fill="#03d5b2"/></g></svg>