<svg xmlns="http://www.w3.org/2000/svg" width="50.04" height="42.012" viewBox="0 0 50.04 42.012"><path d="M-755.165,40.049h-10.714c0,.6.044,1.181,0,1.747a4.354,4.354,0,0,1-3.392,4.043,4.229,4.229,0,0,1-4.645-1.666,3.967,3.967,0,0,1-.162-5.066,3.048,3.048,0,0,0,.4-3.3q-4.581-13.483-9.04-27c-.4-1.213-.97-1.771-2.292-1.617a8.894,8.894,0,0,1-3.21-.069c-.655-.182-1.124-1.039-1.674-1.593.546-.489,1.063-1.346,1.649-1.4a29.425,29.425,0,0,1,5.846,0A2.817,2.817,0,0,1-780.615,5.7a45.922,45.922,0,0,1,1.981,5.717c.36,1.265,1.011,1.617,2.3,1.617,11.248-.065,22.5-.057,33.743-.065,2.976,0,3.186.279,2.24,3.162-1.7,5.179-3.469,10.338-5.114,15.537a2.637,2.637,0,0,1-2.931,2.114c-6.8-.057-13.6-.024-20.4-.028h-1.981c.4,3.234.4,3.234,3.234,3.234,5.587,0,11.179-.036,16.77.028a4.375,4.375,0,0,1,4.492,3.833,4.488,4.488,0,0,1-3.234,4.949,4.447,4.447,0,0,1-3.68-.561,4.448,4.448,0,0,1-1.964-3.162A18.5,18.5,0,0,1-755.165,40.049Z" transform="translate(789.89 -3.99)" fill="#fff"/></svg>