<svg xmlns="http://www.w3.org/2000/svg" width="142.628" height="159.579" viewBox="0 0 142.628 159.579"><path d="M331.642,450.735c-35.325-15.146-49.714-48.74-41.558-79.441,7.543-28.444,36.229-49.775,67.948-50.264,32.615-.347,61.367,20.057,69.964,49.648,8.083,27.927-2.836,63.348-42.213,80.555,5.351,6.84,10.888,13.367,15.751,20.354a8.086,8.086,0,0,1,.395,7.3c-1.642,2.931-5.8,1.954-8.312-1.73-4.7-6.84-9.465-13.6-13.777-20.627-1.683-2.736-3.522-3.068-6.327-2.423a63.474,63.474,0,0,1-29.247-.078c-3.377-.8-5.268,0-7.21,2.726-4.925,6.84-10.317,13.445-15.4,20.227-2.14,2.863-4.79,4.808-8.125,2.414s-2.421-5.511.218-8.413C319.735,464.444,325.491,457.8,331.642,450.735Zm39.293-37.766c-7.574,9.42-7.574,9.42-.436,18.683a33.7,33.7,0,0,1,3.314,4.368c2.078,3.85,4.8,3.576,8.478,2.023,24.239-10.2,37.932-34.532,33.392-59.664-4.343-23.94-26.951-42.466-53.59-43.9s-51.46,15.292-58.348,39.515c-7.138,25.142,5.434,51.6,29.86,62.84,7.532,3.469,7.532,3.469,13-2.765,1.1-1.261,2.182-2.531,3.3-3.762,7.855-8.569,7.917-8.618.353-17.588a5.185,5.185,0,0,0-4.156-1.4,17.421,17.421,0,0,1-15.117-3.2c-10.109-7.817-12.706-18.566-11.886-30.194.468-6.664,5.839-10.172,12.395-7.475a66.319,66.319,0,0,1,17.662,10.514c9.912,8.433,10.535,17.022,3.262,27.594l8.571,10.885c2.14-4.133,5.725-7.817,5.195-10.836-1.039-6.176-.27-11.218,4.156-15.751q8.623-8.794,17.3-17.588c1.153-1.153,2.442-2.2,3.657-3.293l.665.674L373.2,395.38l1.642,1.388L396.41,374.1l.738.557L378.2,399.171l1.766,1.309,18.431-20.852.987.772c-4.758,6.518-9.548,13.015-14.223,19.543a12.669,12.669,0,0,0-1.164,3.488l1.216.41,18.223-22.191,1.039.743c-5.725,8.267-11.325,16.611-17.216,24.78-3.823,5.364-9.143,7.788-16.281,5.794Zm-22.286,28.894h21.143l-9.808-14.774c-3.761,4.944-7.221,9.459-11.293,14.774Z" transform="translate(-287.861 -321.025)" fill="#03d5b2"/></svg>