<svg xmlns="http://www.w3.org/2000/svg" width="187" height="133.666" viewBox="0 0 187 133.666"><path d="M-986-307.334c4.393-4.91,8.012-11.006,13.332-14.518,22.332-14.776,45.226-28.686,67.695-43.219a10.642,10.642,0,0,0,4.3-7.6c0-7.479,3.238-12.162,9.121-16.251,2.767-1.946,3.983-6.081,5.883-9.243-2.934-1.52-5.868-4.135-8.817-4.15-4.667,0-8.012,3.04-7.905,8.346.167,8.027-5.655,6.081-10.14,6.081-5.9,0-5.245-4.12-4.758-8.042,1.52-12.694,10.231-20.979,22.408-21.45,12.77-.5,22.681,6.719,25.083,18.425,1.809,8.832-2.326,15.05-9.121,20.051-9.334,6.841-9.243,9.38.486,15.491,21.815,13.682,43.843,27.075,65.369,41.258,5.534,3.648,9.425,9.79,14.062,14.776v9.121c-4.561,10.444-12.435,14.594-23.867,14.518q-69.458-.456-138.946,0c-12.01,0-20.568-3.937-24.171-16.008Zm93.842,7.6c23.289,0,46.579.076,69.929-.122,2.128,0,4.241-1.7,6.37-2.615-1.383-1.87-2.356-4.348-4.181-5.5-22.636-14.335-45.317-28.595-68.211-42.566a9.775,9.775,0,0,0-8.437.167q-33.672,20.477-66.889,41.684c-2.189,1.4-3.42,4.333-5.093,6.552,2.493.775,4.986,2.219,7.479,2.235C-938.235-299.642-915.2-299.733-892.158-299.733Z" transform="translate(986 417.406)" fill="#03d5b2"/></svg>