<svg xmlns="http://www.w3.org/2000/svg" xmlns:xlink="http://www.w3.org/1999/xlink" width="500" zoomAndPan="magnify" viewBox="0 0 375 374.999991" height="500" preserveAspectRatio="xMidYMid meet" version="1.0"><defs><g/><clipPath id="41bf41dbfd"><path d="M 52.914062 145.09375 L 137.730469 145.09375 L 137.730469 229.90625 L 52.914062 229.90625 Z M 52.914062 145.09375 " clip-rule="nonzero"/></clipPath><clipPath id="b626cd7fdd"><path d="M 95.324219 145.09375 C 71.902344 145.09375 52.914062 164.078125 52.914062 187.5 C 52.914062 210.921875 71.902344 229.90625 95.324219 229.90625 C 118.742188 229.90625 137.730469 210.921875 137.730469 187.5 C 137.730469 164.078125 118.742188 145.09375 95.324219 145.09375 Z M 95.324219 145.09375 " clip-rule="nonzero"/></clipPath><clipPath id="eff8c88b88"><path d="M 86.117188 152.378906 L 104.867188 152.378906 L 104.867188 171 L 86.117188 171 Z M 86.117188 152.378906 " clip-rule="nonzero"/></clipPath></defs><g clip-path="url(#41bf41dbfd)"><g clip-path="url(#b626cd7fdd)"><path fill="#2bd4b4" d="M 52.914062 145.09375 L 137.730469 145.09375 L 137.730469 229.90625 L 52.914062 229.90625 Z M 52.914062 145.09375 " fill-opacity="1" fill-rule="nonzero"/></g></g><path fill="#ffffff" d="M 87.636719 175.203125 C 87.636719 214.484375 87.636719 168.347656 87.636719 207.628906 C 87.636719 216.082031 94.550781 222.996094 103.007812 222.996094 C 103.007812 183.714844 103.007812 229.855469 103.007812 190.574219 C 103.007812 182.121094 96.089844 175.203125 87.636719 175.203125 Z M 87.636719 175.203125 " fill-opacity="1" fill-rule="evenodd"/><g clip-path="url(#eff8c88b88)"><path fill="#ffffff" d="M 95.320312 152.421875 C 90.238281 152.421875 86.117188 156.542969 86.117188 161.625 C 86.117188 166.707031 90.238281 170.828125 95.320312 170.828125 C 100.402344 170.828125 104.527344 166.707031 104.527344 161.625 C 104.527344 156.542969 100.402344 152.421875 95.320312 152.421875 Z M 95.320312 152.421875 " fill-opacity="1" fill-rule="evenodd"/></g><g fill="#ffffff" fill-opacity="1"><g transform="translate(103.231486, 209.999986)"><g><path d="M 20.515625 -17.234375 L 2.546875 -17.234375 L 2.546875 -24.375 L 20.515625 -24.375 Z M 20.515625 -17.234375 "/></g></g></g><g fill="#2bd4b4" fill-opacity="1"><g transform="translate(126.352578, 209.999986)"><g/></g><g transform="translate(140.502967, 209.999986)"><g><path d="M 18.984375 0.609375 C 16.015625 0.609375 13.375 0.242188 11.0625 -0.484375 C 8.75 -1.210938 6.816406 -2.171875 5.265625 -3.359375 C 3.722656 -4.554688 2.546875 -5.867188 1.734375 -7.296875 L 6.390625 -12.984375 L 7.125 -12.984375 C 8.40625 -11.066406 10.035156 -9.539062 12.015625 -8.40625 C 14.003906 -7.269531 16.328125 -6.703125 18.984375 -6.703125 C 21.253906 -6.703125 22.960938 -7.179688 24.109375 -8.140625 C 25.265625 -9.097656 25.84375 -10.414062 25.84375 -12.09375 C 25.84375 -13.113281 25.65625 -13.960938 25.28125 -14.640625 C 24.914062 -15.328125 24.300781 -15.914062 23.4375 -16.40625 C 22.582031 -16.894531 21.421875 -17.316406 19.953125 -17.671875 L 14.4375 -18.921875 C 10.59375 -19.804688 7.726562 -21.269531 5.84375 -23.3125 C 3.957031 -25.351562 3.015625 -28.003906 3.015625 -31.265625 C 3.015625 -33.679688 3.617188 -35.804688 4.828125 -37.640625 C 6.046875 -39.484375 7.8125 -40.910156 10.125 -41.921875 C 12.4375 -42.941406 15.203125 -43.453125 18.421875 -43.453125 C 21.722656 -43.453125 24.550781 -43.015625 26.90625 -42.140625 C 29.257812 -41.273438 31.25 -39.941406 32.875 -38.140625 L 28.6875 -32.40625 L 27.953125 -32.40625 C 26.742188 -33.675781 25.359375 -34.628906 23.796875 -35.265625 C 22.234375 -35.898438 20.441406 -36.21875 18.421875 -36.21875 C 16.097656 -36.21875 14.332031 -35.804688 13.125 -34.984375 C 11.914062 -34.160156 11.3125 -33.023438 11.3125 -31.578125 C 11.3125 -30.234375 11.734375 -29.160156 12.578125 -28.359375 C 13.429688 -27.554688 14.90625 -26.929688 17 -26.484375 L 22.625 -25.3125 C 26.78125 -24.4375 29.796875 -22.945312 31.671875 -20.84375 C 33.546875 -18.75 34.484375 -16.007812 34.484375 -12.625 C 34.484375 -9.945312 33.90625 -7.617188 32.75 -5.640625 C 31.601562 -3.660156 29.863281 -2.125 27.53125 -1.03125 C 25.207031 0.0625 22.359375 0.609375 18.984375 0.609375 Z M 18.984375 0.609375 "/></g></g><g transform="translate(177.29984, 209.999986)"><g><path d="M 4.65625 0 L 4.65625 -45.296875 L 12.78125 -45.296875 L 12.78125 -28.09375 L 13.390625 -27.984375 C 14.460938 -29.566406 15.78125 -30.785156 17.34375 -31.640625 C 18.90625 -32.503906 20.789062 -32.9375 23 -32.9375 C 30.125 -32.9375 33.6875 -28.890625 33.6875 -20.796875 L 33.6875 0 L 25.578125 0 L 25.578125 -19.78125 C 25.578125 -21.988281 25.132812 -23.585938 24.25 -24.578125 C 23.375 -25.578125 22.007812 -26.078125 20.15625 -26.078125 C 17.894531 -26.078125 16.097656 -25.316406 14.765625 -23.796875 C 13.441406 -22.285156 12.78125 -19.929688 12.78125 -16.734375 L 12.78125 0 Z M 4.65625 0 "/></g></g><g transform="translate(215.1514, 209.999986)"><g><path d="M 18.78125 0.609375 C 15.613281 0.609375 12.832031 -0.0351562 10.4375 -1.328125 C 8.050781 -2.628906 6.195312 -4.535156 4.875 -7.046875 C 3.5625 -9.554688 2.90625 -12.585938 2.90625 -16.140625 C 2.90625 -19.691406 3.5625 -22.726562 4.875 -25.25 C 6.195312 -27.769531 8.050781 -29.679688 10.4375 -30.984375 C 12.832031 -32.285156 15.613281 -32.9375 18.78125 -32.9375 C 21.945312 -32.9375 24.722656 -32.285156 27.109375 -30.984375 C 29.503906 -29.679688 31.363281 -27.769531 32.6875 -25.25 C 34.019531 -22.726562 34.6875 -19.691406 34.6875 -16.140625 C 34.6875 -12.585938 34.019531 -9.554688 32.6875 -7.046875 C 31.363281 -4.535156 29.503906 -2.628906 27.109375 -1.328125 C 24.722656 -0.0351562 21.945312 0.609375 18.78125 0.609375 Z M 18.78125 -6.265625 C 23.800781 -6.265625 26.3125 -9.554688 26.3125 -16.140625 C 26.3125 -19.554688 25.664062 -22.0625 24.375 -23.65625 C 23.082031 -25.25 21.21875 -26.046875 18.78125 -26.046875 C 13.757812 -26.046875 11.25 -22.742188 11.25 -16.140625 C 11.25 -9.554688 13.757812 -6.265625 18.78125 -6.265625 Z M 18.78125 -6.265625 "/></g></g><g transform="translate(252.709991, 209.999986)"><g><path d="M 4.65625 13.09375 L 4.65625 -32.3125 L 12.78125 -32.3125 L 12.78125 -28.09375 L 13.390625 -27.984375 C 14.347656 -29.617188 15.625 -30.851562 17.21875 -31.6875 C 18.820312 -32.519531 20.703125 -32.9375 22.859375 -32.9375 C 25.453125 -32.9375 27.71875 -32.316406 29.65625 -31.078125 C 31.601562 -29.847656 33.117188 -27.976562 34.203125 -25.46875 C 35.285156 -22.957031 35.828125 -19.847656 35.828125 -16.140625 C 35.828125 -12.453125 35.253906 -9.359375 34.109375 -6.859375 C 32.972656 -4.359375 31.390625 -2.488281 29.359375 -1.25 C 27.328125 -0.0078125 24.984375 0.609375 22.328125 0.609375 C 20.316406 0.609375 18.578125 0.273438 17.109375 -0.390625 C 15.640625 -1.066406 14.398438 -2.117188 13.390625 -3.546875 L 12.78125 -3.421875 L 12.78125 13.09375 Z M 20.0625 -6.265625 C 22.488281 -6.265625 24.328125 -7.054688 25.578125 -8.640625 C 26.828125 -10.222656 27.453125 -12.722656 27.453125 -16.140625 C 27.453125 -19.554688 26.828125 -22.0625 25.578125 -23.65625 C 24.328125 -25.25 22.488281 -26.046875 20.0625 -26.046875 C 17.800781 -26.046875 16.003906 -25.222656 14.671875 -23.578125 C 13.347656 -21.941406 12.6875 -19.460938 12.6875 -16.140625 C 12.6875 -12.835938 13.347656 -10.363281 14.671875 -8.71875 C 16.003906 -7.082031 17.800781 -6.265625 20.0625 -6.265625 Z M 20.0625 -6.265625 "/></g></g></g></svg>