<svg xmlns="http://www.w3.org/2000/svg" xmlns:xlink="http://www.w3.org/1999/xlink" width="1584" zoomAndPan="magnify" viewBox="0 0 1188 296.999993" height="396" preserveAspectRatio="xMidYMid meet" version="1.0"><defs><g/><clipPath id="962dfe317b"><path d="M 200.398438 6.664062 L 487.015625 6.664062 L 487.015625 293.28125 L 200.398438 293.28125 Z M 200.398438 6.664062 " clip-rule="nonzero"/></clipPath><clipPath id="db1b3dca9d"><path d="M 343.707031 6.664062 C 264.558594 6.664062 200.398438 70.828125 200.398438 149.972656 C 200.398438 229.121094 264.558594 293.28125 343.707031 293.28125 C 422.851562 293.28125 487.015625 229.121094 487.015625 149.972656 C 487.015625 70.828125 422.851562 6.664062 343.707031 6.664062 Z M 343.707031 6.664062 " clip-rule="nonzero"/></clipPath><clipPath id="25d31764c7"><path d="M 312.59375 31.28125 L 375 31.28125 L 375 94 L 312.59375 94 Z M 312.59375 31.28125 " clip-rule="nonzero"/></clipPath></defs><g clip-path="url(#962dfe317b)"><g clip-path="url(#db1b3dca9d)"><path fill="#ffffff" d="M 200.398438 6.664062 L 487.015625 6.664062 L 487.015625 293.28125 L 200.398438 293.28125 Z M 200.398438 6.664062 " fill-opacity="1" fill-rule="nonzero"/></g></g><path fill="#2bd4b4" d="M 317.726562 108.417969 C 317.726562 241.160156 317.726562 85.246094 317.726562 217.988281 C 317.726562 246.554688 341.101562 269.929688 369.671875 269.929688 C 369.671875 137.1875 369.671875 293.101562 369.671875 160.359375 C 369.671875 131.792969 346.296875 108.417969 317.726562 108.417969 Z M 317.726562 108.417969 " fill-opacity="1" fill-rule="evenodd"/><g clip-path="url(#25d31764c7)"><path fill="#2bd4b4" d="M 343.699219 31.429688 C 326.523438 31.429688 312.59375 45.359375 312.59375 62.535156 C 312.59375 79.710938 326.523438 93.640625 343.699219 93.640625 C 360.875 93.640625 374.804688 79.710938 374.804688 62.535156 C 374.804688 45.359375 360.875 31.429688 343.699219 31.429688 Z M 343.699219 31.429688 " fill-opacity="1" fill-rule="evenodd"/></g><g fill="#2bd4b4" fill-opacity="1"><g transform="translate(370.430937, 226.007581)"><g><path d="M 69.296875 -58.21875 L 8.609375 -58.21875 L 8.609375 -82.375 L 69.296875 -82.375 Z M 69.296875 -58.21875 "/></g></g><g transform="translate(448.544066, 226.007581)"><g/></g></g><g fill="#ffffff" fill-opacity="1"><g transform="translate(496.362368, 226.007581)"><g><path d="M 64.15625 2.078125 C 54.125 2.078125 45.195312 0.84375 37.375 -1.625 C 29.550781 -4.101562 23.03125 -7.351562 17.8125 -11.375 C 12.601562 -15.40625 8.613281 -19.832031 5.84375 -24.65625 L 21.578125 -43.859375 L 24.0625 -43.859375 C 28.414062 -37.390625 33.941406 -32.238281 40.640625 -28.40625 C 47.335938 -24.582031 55.175781 -22.671875 64.15625 -22.671875 C 71.8125 -22.671875 77.582031 -24.285156 81.46875 -27.515625 C 85.363281 -30.753906 87.3125 -35.210938 87.3125 -40.890625 C 87.3125 -44.316406 86.6875 -47.1875 85.4375 -49.5 C 84.1875 -51.8125 82.109375 -53.789062 79.203125 -55.4375 C 76.296875 -57.09375 72.367188 -58.515625 67.421875 -59.703125 L 48.8125 -63.953125 C 35.800781 -66.921875 26.113281 -71.851562 19.75 -78.75 C 13.382812 -85.644531 10.203125 -94.601562 10.203125 -105.625 C 10.203125 -113.8125 12.242188 -121.003906 16.328125 -127.203125 C 20.421875 -133.410156 26.378906 -138.226562 34.203125 -141.65625 C 42.023438 -145.09375 51.378906 -146.8125 62.265625 -146.8125 C 73.421875 -146.8125 82.972656 -145.34375 90.921875 -142.40625 C 98.878906 -139.46875 105.597656 -134.960938 111.078125 -128.890625 L 96.921875 -109.5 L 94.4375 -109.5 C 90.351562 -113.78125 85.671875 -116.992188 80.390625 -119.140625 C 75.109375 -121.285156 69.066406 -122.359375 62.265625 -122.359375 C 54.410156 -122.359375 48.4375 -120.972656 44.34375 -118.203125 C 40.257812 -115.429688 38.21875 -111.601562 38.21875 -106.71875 C 38.21875 -102.164062 39.648438 -98.535156 42.515625 -95.828125 C 45.390625 -93.117188 50.359375 -91.007812 57.421875 -89.5 L 76.421875 -85.53125 C 90.484375 -82.5625 100.679688 -77.53125 107.015625 -70.4375 C 113.347656 -63.34375 116.515625 -54.085938 116.515625 -42.671875 C 116.515625 -33.628906 114.566406 -25.757812 110.671875 -19.0625 C 106.785156 -12.363281 100.914062 -7.164062 93.0625 -3.46875 C 85.207031 0.226562 75.570312 2.078125 64.15625 2.078125 Z M 64.15625 2.078125 "/></g></g><g transform="translate(620.709756, 226.007581)"><g><path d="M 15.734375 0 L 15.734375 -153.046875 L 43.15625 -153.046875 L 43.15625 -94.9375 L 45.25 -94.546875 C 48.875 -99.890625 53.328125 -104.015625 58.609375 -106.921875 C 63.890625 -109.828125 70.257812 -111.28125 77.71875 -111.28125 C 101.800781 -111.28125 113.84375 -97.617188 113.84375 -70.296875 L 113.84375 0 L 86.421875 0 L 86.421875 -66.828125 C 86.421875 -74.285156 84.9375 -79.695312 81.96875 -83.0625 C 79 -86.425781 74.378906 -88.109375 68.109375 -88.109375 C 60.453125 -88.109375 54.378906 -85.550781 49.890625 -80.4375 C 45.398438 -75.320312 43.15625 -67.351562 43.15625 -56.53125 L 43.15625 0 Z M 15.734375 0 "/></g></g><g transform="translate(748.621242, 226.007581)"><g><path d="M 63.453125 2.078125 C 52.765625 2.078125 43.378906 -0.113281 35.296875 -4.5 C 27.210938 -8.894531 20.941406 -15.332031 16.484375 -23.8125 C 12.023438 -32.289062 9.796875 -42.535156 9.796875 -54.546875 C 9.796875 -66.554688 12.023438 -76.816406 16.484375 -85.328125 C 20.941406 -93.847656 27.210938 -100.300781 35.296875 -104.6875 C 43.378906 -109.082031 52.765625 -111.28125 63.453125 -111.28125 C 74.148438 -111.28125 83.539062 -109.082031 91.625 -104.6875 C 99.707031 -100.300781 105.992188 -93.847656 110.484375 -85.328125 C 114.972656 -76.816406 117.21875 -66.554688 117.21875 -54.546875 C 117.21875 -42.535156 114.972656 -32.289062 110.484375 -23.8125 C 105.992188 -15.332031 99.707031 -8.894531 91.625 -4.5 C 83.539062 -0.113281 74.148438 2.078125 63.453125 2.078125 Z M 63.453125 -21.1875 C 80.421875 -21.1875 88.90625 -32.304688 88.90625 -54.546875 C 88.90625 -66.097656 86.722656 -74.5625 82.359375 -79.9375 C 78.003906 -85.320312 71.703125 -88.015625 63.453125 -88.015625 C 46.492188 -88.015625 38.015625 -76.859375 38.015625 -54.546875 C 38.015625 -32.304688 46.492188 -21.1875 63.453125 -21.1875 Z M 63.453125 -21.1875 "/></g></g><g transform="translate(875.542699, 226.007581)"><g><path d="M 15.734375 44.25 L 15.734375 -109.203125 L 43.15625 -109.203125 L 43.15625 -94.9375 L 45.25 -94.546875 C 48.476562 -100.085938 52.796875 -104.257812 58.203125 -107.0625 C 63.617188 -109.875 69.957031 -111.28125 77.21875 -111.28125 C 86 -111.28125 93.671875 -109.195312 100.234375 -105.03125 C 106.804688 -100.875 111.921875 -94.554688 115.578125 -86.078125 C 119.242188 -77.597656 121.078125 -67.085938 121.078125 -54.546875 C 121.078125 -42.078125 119.144531 -31.617188 115.28125 -23.171875 C 111.425781 -14.722656 106.066406 -8.398438 99.203125 -4.203125 C 92.335938 -0.015625 84.414062 2.078125 75.4375 2.078125 C 68.632812 2.078125 62.757812 0.941406 57.8125 -1.328125 C 52.863281 -3.609375 48.675781 -7.160156 45.25 -11.984375 L 43.15625 -11.578125 L 43.15625 44.25 Z M 67.8125 -21.1875 C 76 -21.1875 82.203125 -23.859375 86.421875 -29.203125 C 90.648438 -34.546875 92.765625 -42.992188 92.765625 -54.546875 C 92.765625 -66.097656 90.648438 -74.5625 86.421875 -79.9375 C 82.203125 -85.320312 76 -88.015625 67.8125 -88.015625 C 60.15625 -88.015625 54.082031 -85.238281 49.59375 -79.6875 C 45.101562 -74.144531 42.859375 -65.765625 42.859375 -54.546875 C 42.859375 -43.390625 45.101562 -35.039062 49.59375 -29.5 C 54.082031 -23.957031 60.15625 -21.1875 67.8125 -21.1875 Z M 67.8125 -21.1875 "/></g></g></g></svg>