<svg xmlns="http://www.w3.org/2000/svg" width="233.548" height="91.421" viewBox="0 0 233.548 91.421"><g transform="translate(0.004 0.006)"><path d="M-844.347-90.044h-96.681c-1.627-19.4-10.922-30.145-25.608-29.9s-23.925,10.908-25.18,29.331c-12,3.1-16.272,0-16.093-12.3.1-6.412.538-12.838,1.172-19.209.772-7.846,4.854-13.6,12.756-15.169,15.638-3.1,28.876-10.632,41.962-19.457,13.335-8.991,29.221-10.522,45-9.791,28.6,1.379,54.8,9.239,77.568,27.7,4.606,3.723,12.618,3.185,19.03,4.716,6.66,1.6,13.473,2.758,19.9,5.075,12.811,4.592,20.243,24.822,13.79,36.736a6.177,6.177,0,0,1-4.33,2.468c-4.054.345-8.164.11-12.163.11-2.151-20.092-11.032-30.338-25.746-30.227S-842.775-109.115-844.347-90.044Zm0-47.161c-8.274-11.032-37.233-21.953-53.284-19.6.717,5.337,1.255,10.715,2.289,16.01.262,1.379,2.124,3.42,3.268,3.434,15.859.221,31.772.152,47.685.152Zm-113.794-1.379h53.215c-.538-20.685-1.558-21.554-20.974-17.582a73.882,73.882,0,0,0-8.619,2.234,52.085,52.085,0,0,0-23.663,15.389Z" transform="translate(1007.91 166.69)" fill="#03d5b2"/><path d="M-972.625-128.18c11.032,0,19.306,7.957,19.306,18.878a19.111,19.111,0,0,1-5.46,13.7,19.113,19.113,0,0,1-13.583,5.734A19.926,19.926,0,0,1-992-109.067a19.306,19.306,0,0,1,19.375-19.113Z" transform="translate(1013.941 181.287)" fill="#03d5b2"/><path d="M-865.436-128.18c11.032,0,19.1,8.039,19.085,19a19.085,19.085,0,0,1-5.521,13.648,19.085,19.085,0,0,1-13.592,5.658,19.9,19.9,0,0,1-19.416-19.306,19.306,19.306,0,0,1,19.444-19Z" transform="translate(1054.538 181.287)" fill="#03d5b2"/></g></svg>