<svg xmlns="http://www.w3.org/2000/svg" width="42.122" height="44.659" viewBox="0 0 42.122 44.659"><path d="M-272.005,162.015c-.516-.211-1.077-.262-1.6-.47a6.983,6.983,0,0,1-4.32-4.728.449.449,0,0,0-.529-.393c-2.736.016-5.473.01-8.208.008a3.366,3.366,0,0,1-3.271-2.127,3.239,3.239,0,0,1,1.067-3.686,12.108,12.108,0,0,0,4.4-8.418c.179-2.059.033-4.126.076-6.189a12.74,12.74,0,0,1,6.863-11.411,13.012,13.012,0,0,1,7.119-1.657,1.459,1.459,0,0,1,1.556,1.54,1.558,1.558,0,0,1-1.745,1.28,10.085,10.085,0,0,0-6.76,2.075,9.982,9.982,0,0,0-4.159,8.247c-.019,1.716.017,3.431-.008,5.146a14.974,14.974,0,0,1-5.361,11.441c-.2.174-.463.315-.339.638s.408.331.706.331h31.042c.274,0,.556.016.691-.28.15-.33-.1-.507-.31-.692a15.232,15.232,0,0,1-5.012-8.243,21.039,21.039,0,0,1-.349-5.377,1.348,1.348,0,0,1,.449-.969,1.427,1.427,0,0,1,1.027-.362,1.447,1.447,0,0,1,1.4,1.423c.016.712-.007,1.424.008,2.136a12.183,12.183,0,0,0,4.486,9.364,3.123,3.123,0,0,1,1.153,3.236,3.191,3.191,0,0,1-2.279,2.412,3.378,3.378,0,0,1-1.058.14q-4.126,0-8.254-.009c-.319,0-.444.069-.53.4a7.084,7.084,0,0,1-5.921,5.119.553.553,0,0,0-.151.073Z" transform="translate(290.141 -117.355)" fill="#fff"/><path d="M-23.321,59c.514.168,1.06.2,1.583.339A9.335,9.335,0,0,1-14.783,68.8a9.439,9.439,0,0,1-8.441,8.759,9.552,9.552,0,0,1-10.6-8.033,9.358,9.358,0,0,1,7.9-10.421c.179-.033.388.041.545-.108Z" transform="translate(56.888 -59)" fill="#fff"/></svg>