<svg xmlns="http://www.w3.org/2000/svg" xmlns:xlink="http://www.w3.org/1999/xlink" width="500" zoomAndPan="magnify" viewBox="0 0 375 374.999991" height="500" preserveAspectRatio="xMidYMid meet" version="1.0"><defs><clipPath id="5c3b134407"><path d="M 189 75 L 300 75 L 300 185 L 189 185 Z M 189 75 " clip-rule="nonzero"/></clipPath><clipPath id="d7e3d159c3"><path d="M 75 85 L 173 85 L 173 185 L 75 185 Z M 75 85 " clip-rule="nonzero"/></clipPath><clipPath id="d3d18b6926"><path d="M 75 201 L 173 201 L 173 300 L 75 300 Z M 75 201 " clip-rule="nonzero"/></clipPath></defs><rect x="-37.5" width="450" fill="#ffffff" y="-37.499999" height="449.999989" fill-opacity="1"/><rect x="-37.5" width="450" fill="#ffffff" y="-37.499999" height="449.999989" fill-opacity="1"/><g clip-path="url(#5c3b134407)"><path fill="#2bd4b4" d="M 267.691406 184.039062 L 221.539062 184.039062 C 220.5 184.039062 219.460938 183.988281 218.429688 183.886719 C 217.394531 183.785156 216.367188 183.632812 215.347656 183.429688 C 214.328125 183.226562 213.320312 182.972656 212.328125 182.671875 C 211.332031 182.371094 210.355469 182.019531 209.394531 181.625 C 208.433594 181.226562 207.496094 180.78125 206.582031 180.292969 C 205.664062 179.800781 204.773438 179.269531 203.910156 178.691406 C 203.046875 178.113281 202.210938 177.496094 201.410156 176.835938 C 200.605469 176.175781 199.835938 175.480469 199.101562 174.746094 C 198.367188 174.011719 197.667969 173.242188 197.011719 172.4375 C 196.351562 171.632812 195.734375 170.800781 195.15625 169.9375 C 194.578125 169.074219 194.042969 168.183594 193.554688 167.265625 C 193.066406 166.347656 192.621094 165.410156 192.222656 164.449219 C 191.824219 163.492188 191.476562 162.511719 191.175781 161.519531 C 190.871094 160.523438 190.621094 159.515625 190.417969 158.496094 C 190.214844 157.480469 190.0625 156.453125 189.960938 155.417969 C 189.859375 154.382812 189.808594 153.347656 189.808594 152.308594 L 189.808594 106.152344 C 189.808594 105.113281 189.859375 104.078125 189.960938 103.042969 C 190.0625 102.007812 190.214844 100.984375 190.417969 99.964844 C 190.621094 98.945312 190.871094 97.9375 191.175781 96.941406 C 191.476562 95.949219 191.824219 94.972656 192.222656 94.011719 C 192.621094 93.050781 193.066406 92.113281 193.554688 91.195312 C 194.042969 90.28125 194.578125 89.390625 195.15625 88.523438 C 195.734375 87.660156 196.351562 86.828125 197.011719 86.023438 C 197.667969 85.222656 198.367188 84.453125 199.101562 83.71875 C 199.835938 82.980469 200.605469 82.285156 201.410156 81.625 C 202.210938 80.964844 203.046875 80.347656 203.910156 79.769531 C 204.773438 79.191406 205.664062 78.660156 206.582031 78.167969 C 207.496094 77.679688 208.433594 77.234375 209.394531 76.839844 C 210.355469 76.441406 211.332031 76.089844 212.328125 75.789062 C 213.320312 75.488281 214.328125 75.234375 215.347656 75.03125 C 216.367188 74.828125 217.394531 74.675781 218.429688 74.574219 C 219.460938 74.472656 220.5 74.421875 221.539062 74.421875 L 267.691406 74.421875 C 268.730469 74.421875 269.769531 74.472656 270.800781 74.574219 C 271.835938 74.675781 272.863281 74.828125 273.882812 75.03125 C 274.902344 75.234375 275.910156 75.488281 276.902344 75.789062 C 277.898438 76.089844 278.875 76.441406 279.835938 76.839844 C 280.796875 77.234375 281.734375 77.679688 282.648438 78.167969 C 283.566406 78.660156 284.457031 79.191406 285.320312 79.769531 C 286.183594 80.347656 287.019531 80.964844 287.820312 81.625 C 288.625 82.285156 289.394531 82.980469 290.128906 83.71875 C 290.863281 84.453125 291.5625 85.222656 292.21875 86.023438 C 292.878906 86.828125 293.5 87.660156 294.074219 88.523438 C 294.652344 89.390625 295.1875 90.28125 295.675781 91.195312 C 296.167969 92.113281 296.609375 93.050781 297.007812 94.011719 C 297.40625 94.972656 297.753906 95.949219 298.058594 96.941406 C 298.359375 97.9375 298.609375 98.945312 298.8125 99.964844 C 299.015625 100.984375 299.167969 102.007812 299.269531 103.042969 C 299.371094 104.078125 299.421875 105.113281 299.421875 106.152344 L 299.421875 152.308594 C 299.421875 153.347656 299.371094 154.382812 299.269531 155.417969 C 299.167969 156.453125 299.015625 157.480469 298.8125 158.496094 C 298.609375 159.515625 298.359375 160.523438 298.058594 161.519531 C 297.753906 162.511719 297.40625 163.492188 297.007812 164.449219 C 296.609375 165.410156 296.167969 166.347656 295.675781 167.265625 C 295.1875 168.183594 294.652344 169.074219 294.074219 169.9375 C 293.5 170.800781 292.878906 171.632812 292.21875 172.4375 C 291.5625 173.242188 290.863281 174.011719 290.128906 174.746094 C 289.394531 175.480469 288.625 176.175781 287.820312 176.835938 C 287.019531 177.496094 286.183594 178.113281 285.320312 178.691406 C 284.457031 179.269531 283.566406 179.800781 282.648438 180.292969 C 281.734375 180.78125 280.796875 181.226562 279.835938 181.625 C 278.875 182.019531 277.898438 182.371094 276.902344 182.671875 C 275.910156 182.972656 274.902344 183.226562 273.882812 183.429688 C 272.863281 183.632812 271.835938 183.785156 270.800781 183.886719 C 269.769531 183.988281 268.730469 184.039062 267.691406 184.039062 Z M 221.539062 91.730469 C 220.589844 91.730469 219.652344 91.824219 218.726562 92.007812 C 217.796875 92.191406 216.894531 92.464844 216.019531 92.828125 C 215.144531 93.191406 214.3125 93.636719 213.527344 94.160156 C 212.738281 94.6875 212.007812 95.285156 211.339844 95.957031 C 210.671875 96.625 210.070312 97.351562 209.546875 98.140625 C 209.019531 98.929688 208.574219 99.757812 208.214844 100.632812 C 207.851562 101.507812 207.578125 102.410156 207.390625 103.339844 C 207.207031 104.269531 207.117188 105.207031 207.117188 106.152344 L 207.117188 152.308594 C 207.117188 153.253906 207.207031 154.191406 207.390625 155.121094 C 207.578125 156.050781 207.851562 156.953125 208.214844 157.828125 C 208.574219 158.703125 209.019531 159.535156 209.546875 160.320312 C 210.070312 161.109375 210.671875 161.835938 211.339844 162.507812 C 212.007812 163.175781 212.738281 163.773438 213.527344 164.300781 C 214.3125 164.828125 215.144531 165.269531 216.019531 165.632812 C 216.894531 165.996094 217.796875 166.269531 218.726562 166.453125 C 219.652344 166.636719 220.589844 166.730469 221.539062 166.730469 L 267.691406 166.730469 C 268.640625 166.730469 269.578125 166.636719 270.507812 166.453125 C 271.433594 166.269531 272.335938 165.996094 273.210938 165.632812 C 274.085938 165.269531 274.917969 164.828125 275.707031 164.300781 C 276.492188 163.773438 277.222656 163.175781 277.890625 162.507812 C 278.5625 161.835938 279.160156 161.109375 279.683594 160.320312 C 280.210938 159.535156 280.65625 158.703125 281.015625 157.828125 C 281.378906 156.953125 281.652344 156.050781 281.839844 155.121094 C 282.023438 154.191406 282.117188 153.253906 282.117188 152.308594 L 282.117188 106.152344 C 282.117188 105.207031 282.023438 104.269531 281.839844 103.339844 C 281.652344 102.410156 281.378906 101.507812 281.015625 100.632812 C 280.65625 99.757812 280.210938 98.929688 279.683594 98.140625 C 279.160156 97.351562 278.5625 96.625 277.890625 95.957031 C 277.222656 95.285156 276.492188 94.6875 275.707031 94.160156 C 274.917969 93.636719 274.085938 93.191406 273.210938 92.828125 C 272.335938 92.464844 271.433594 92.191406 270.507812 92.007812 C 269.578125 91.824219 268.640625 91.730469 267.691406 91.730469 Z M 221.539062 91.730469 " fill-opacity="1" fill-rule="nonzero"/></g><g clip-path="url(#d7e3d159c3)"><path fill="#2bd4b4" d="M 140.769531 184.039062 L 106.152344 184.039062 C 105.113281 184.039062 104.078125 183.988281 103.042969 183.886719 C 102.007812 183.785156 100.984375 183.632812 99.964844 183.429688 C 98.945312 183.226562 97.9375 182.972656 96.941406 182.671875 C 95.949219 182.371094 94.972656 182.019531 94.011719 181.625 C 93.050781 181.226562 92.113281 180.78125 91.195312 180.292969 C 90.28125 179.800781 89.390625 179.269531 88.523438 178.691406 C 87.660156 178.113281 86.828125 177.496094 86.023438 176.835938 C 85.222656 176.175781 84.453125 175.480469 83.71875 174.746094 C 82.980469 174.011719 82.285156 173.242188 81.625 172.4375 C 80.964844 171.632812 80.347656 170.800781 79.769531 169.9375 C 79.191406 169.074219 78.660156 168.183594 78.167969 167.265625 C 77.679688 166.347656 77.234375 165.410156 76.839844 164.449219 C 76.441406 163.492188 76.089844 162.511719 75.789062 161.519531 C 75.488281 160.523438 75.234375 159.515625 75.03125 158.496094 C 74.828125 157.480469 74.675781 156.453125 74.574219 155.417969 C 74.472656 154.382812 74.421875 153.347656 74.421875 152.308594 L 74.421875 117.691406 C 74.421875 116.652344 74.472656 115.617188 74.574219 114.582031 C 74.675781 113.546875 74.828125 112.519531 75.03125 111.5 C 75.234375 110.484375 75.488281 109.476562 75.789062 108.480469 C 76.089844 107.488281 76.441406 106.507812 76.839844 105.550781 C 77.234375 104.589844 77.679688 103.652344 78.167969 102.734375 C 78.660156 101.816406 79.191406 100.925781 79.769531 100.0625 C 80.347656 99.199219 80.964844 98.367188 81.625 97.5625 C 82.285156 96.757812 82.980469 95.988281 83.71875 95.253906 C 84.453125 94.519531 85.222656 93.824219 86.023438 93.164062 C 86.828125 92.503906 87.660156 91.886719 88.523438 91.308594 C 89.390625 90.730469 90.28125 90.199219 91.195312 89.707031 C 92.113281 89.21875 93.050781 88.773438 94.011719 88.375 C 94.972656 87.980469 95.949219 87.628906 96.941406 87.328125 C 97.9375 87.027344 98.945312 86.773438 99.964844 86.570312 C 100.984375 86.367188 102.007812 86.214844 103.042969 86.113281 C 104.078125 86.011719 105.113281 85.960938 106.152344 85.960938 L 140.769531 85.960938 C 141.808594 85.960938 142.84375 86.011719 143.878906 86.113281 C 144.914062 86.214844 145.941406 86.367188 146.960938 86.570312 C 147.980469 86.773438 148.984375 87.027344 149.980469 87.328125 C 150.976562 87.628906 151.953125 87.980469 152.910156 88.375 C 153.871094 88.773438 154.808594 89.21875 155.726562 89.707031 C 156.644531 90.199219 157.535156 90.730469 158.398438 91.308594 C 159.261719 91.886719 160.09375 92.503906 160.898438 93.164062 C 161.703125 93.824219 162.472656 94.519531 163.207031 95.253906 C 163.941406 95.988281 164.636719 96.757812 165.296875 97.5625 C 165.957031 98.367188 166.574219 99.199219 167.152344 100.0625 C 167.730469 100.925781 168.261719 101.816406 168.753906 102.734375 C 169.242188 103.652344 169.6875 104.589844 170.085938 105.550781 C 170.480469 106.507812 170.832031 107.488281 171.132812 108.480469 C 171.433594 109.476562 171.6875 110.484375 171.890625 111.5 C 172.09375 112.519531 172.246094 113.546875 172.347656 114.582031 C 172.449219 115.617188 172.5 116.652344 172.5 117.691406 L 172.5 152.308594 C 172.5 153.347656 172.449219 154.382812 172.347656 155.417969 C 172.246094 156.453125 172.09375 157.480469 171.890625 158.496094 C 171.6875 159.515625 171.433594 160.523438 171.132812 161.519531 C 170.832031 162.511719 170.480469 163.492188 170.085938 164.449219 C 169.6875 165.410156 169.242188 166.347656 168.753906 167.265625 C 168.261719 168.183594 167.730469 169.074219 167.152344 169.9375 C 166.574219 170.800781 165.957031 171.632812 165.296875 172.4375 C 164.636719 173.242188 163.941406 174.011719 163.207031 174.746094 C 162.472656 175.480469 161.703125 176.175781 160.898438 176.835938 C 160.09375 177.496094 159.261719 178.113281 158.398438 178.691406 C 157.535156 179.269531 156.644531 179.800781 155.726562 180.292969 C 154.808594 180.78125 153.871094 181.226562 152.910156 181.625 C 151.953125 182.019531 150.976562 182.371094 149.980469 182.671875 C 148.984375 182.972656 147.980469 183.226562 146.960938 183.429688 C 145.941406 183.632812 144.914062 183.785156 143.878906 183.886719 C 142.84375 183.988281 141.808594 184.039062 140.769531 184.039062 Z M 106.152344 103.269531 C 105.207031 103.269531 104.269531 103.363281 103.339844 103.546875 C 102.410156 103.730469 101.507812 104.003906 100.632812 104.367188 C 99.757812 104.730469 98.929688 105.171875 98.140625 105.699219 C 97.351562 106.226562 96.625 106.824219 95.957031 107.492188 C 95.285156 108.164062 94.6875 108.890625 94.160156 109.679688 C 93.636719 110.464844 93.191406 111.296875 92.828125 112.171875 C 92.464844 113.046875 92.191406 113.949219 92.007812 114.878906 C 91.824219 115.808594 91.730469 116.746094 91.730469 117.691406 L 91.730469 152.308594 C 91.730469 153.253906 91.824219 154.191406 92.007812 155.121094 C 92.191406 156.050781 92.464844 156.953125 92.828125 157.828125 C 93.191406 158.703125 93.636719 159.535156 94.160156 160.320312 C 94.6875 161.109375 95.285156 161.835938 95.957031 162.507812 C 96.625 163.175781 97.351562 163.773438 98.140625 164.300781 C 98.929688 164.828125 99.757812 165.269531 100.632812 165.632812 C 101.507812 165.996094 102.410156 166.269531 103.339844 166.453125 C 104.269531 166.636719 105.207031 166.730469 106.152344 166.730469 L 140.769531 166.730469 C 141.714844 166.730469 142.652344 166.636719 143.582031 166.453125 C 144.511719 166.269531 145.414062 165.996094 146.289062 165.632812 C 147.164062 165.269531 147.996094 164.828125 148.78125 164.300781 C 149.570312 163.773438 150.296875 163.175781 150.96875 162.507812 C 151.636719 161.835938 152.234375 161.109375 152.761719 160.320312 C 153.289062 159.535156 153.730469 158.703125 154.09375 157.828125 C 154.457031 156.953125 154.730469 156.050781 154.914062 155.121094 C 155.101562 154.191406 155.191406 153.253906 155.191406 152.308594 L 155.191406 117.691406 C 155.191406 116.746094 155.101562 115.808594 154.914062 114.878906 C 154.730469 113.949219 154.457031 113.046875 154.09375 112.171875 C 153.730469 111.296875 153.289062 110.464844 152.761719 109.679688 C 152.234375 108.890625 151.636719 108.164062 150.96875 107.492188 C 150.296875 106.824219 149.570312 106.226562 148.78125 105.699219 C 147.996094 105.171875 147.164062 104.730469 146.289062 104.367188 C 145.414062 104.003906 144.511719 103.730469 143.582031 103.546875 C 142.652344 103.363281 141.714844 103.269531 140.769531 103.269531 Z M 106.152344 103.269531 " fill-opacity="1" fill-rule="nonzero"/></g><path fill="#2bd4b4" d="M 256.152344 299.421875 L 221.539062 299.421875 C 220.5 299.421875 219.460938 299.371094 218.429688 299.269531 C 217.394531 299.167969 216.367188 299.015625 215.347656 298.8125 C 214.328125 298.609375 213.320312 298.359375 212.328125 298.058594 C 211.332031 297.753906 210.355469 297.40625 209.394531 297.007812 C 208.433594 296.609375 207.496094 296.167969 206.582031 295.675781 C 205.664062 295.1875 204.773438 294.652344 203.910156 294.074219 C 203.046875 293.5 202.210938 292.878906 201.410156 292.21875 C 200.605469 291.5625 199.835938 290.863281 199.101562 290.128906 C 198.367188 289.394531 197.667969 288.625 197.011719 287.820312 C 196.351562 287.019531 195.734375 286.183594 195.15625 285.320312 C 194.578125 284.457031 194.042969 283.566406 193.554688 282.648438 C 193.066406 281.734375 192.621094 280.796875 192.222656 279.835938 C 191.824219 278.875 191.476562 277.898438 191.175781 276.902344 C 190.871094 275.910156 190.621094 274.902344 190.417969 273.882812 C 190.214844 272.863281 190.0625 271.835938 189.960938 270.800781 C 189.859375 269.769531 189.808594 268.730469 189.808594 267.691406 L 189.808594 233.078125 C 189.808594 232.039062 189.859375 231 189.960938 229.964844 C 190.0625 228.933594 190.214844 227.90625 190.417969 226.886719 C 190.621094 225.867188 190.871094 224.859375 191.175781 223.867188 C 191.476562 222.871094 191.824219 221.894531 192.222656 220.933594 C 192.621094 219.972656 193.066406 219.035156 193.554688 218.117188 C 194.042969 217.203125 194.578125 216.3125 195.15625 215.449219 C 195.734375 214.585938 196.351562 213.75 197.011719 212.945312 C 197.667969 212.144531 198.367188 211.375 199.101562 210.640625 C 199.835938 209.90625 200.605469 209.207031 201.410156 208.546875 C 202.210938 207.890625 203.046875 207.269531 203.910156 206.695312 C 204.773438 206.117188 205.664062 205.582031 206.582031 205.09375 C 207.496094 204.601562 208.433594 204.160156 209.394531 203.761719 C 210.355469 203.363281 211.332031 203.015625 212.328125 202.710938 C 213.320312 202.410156 214.328125 202.160156 215.347656 201.957031 C 216.367188 201.753906 217.394531 201.601562 218.429688 201.5 C 219.460938 201.398438 220.5 201.347656 221.539062 201.347656 L 256.152344 201.347656 C 257.191406 201.347656 258.230469 201.398438 259.265625 201.5 C 260.296875 201.601562 261.324219 201.753906 262.34375 201.957031 C 263.363281 202.160156 264.371094 202.410156 265.363281 202.710938 C 266.359375 203.015625 267.335938 203.363281 268.296875 203.761719 C 269.257812 204.160156 270.195312 204.601562 271.113281 205.09375 C 272.027344 205.582031 272.917969 206.117188 273.78125 206.695312 C 274.648438 207.269531 275.480469 207.890625 276.285156 208.546875 C 277.085938 209.207031 277.855469 209.90625 278.589844 210.640625 C 279.324219 211.375 280.023438 212.144531 280.683594 212.945312 C 281.339844 213.75 281.960938 214.585938 282.535156 215.449219 C 283.113281 216.3125 283.648438 217.203125 284.136719 218.117188 C 284.628906 219.035156 285.070312 219.972656 285.46875 220.933594 C 285.867188 221.894531 286.214844 222.871094 286.519531 223.867188 C 286.820312 224.859375 287.070312 225.867188 287.273438 226.886719 C 287.476562 227.90625 287.628906 228.933594 287.730469 229.964844 C 287.832031 231 287.882812 232.039062 287.882812 233.078125 L 287.882812 267.691406 C 287.882812 268.730469 287.832031 269.769531 287.730469 270.800781 C 287.628906 271.835938 287.476562 272.863281 287.273438 273.882812 C 287.070312 274.902344 286.820312 275.910156 286.519531 276.902344 C 286.214844 277.898438 285.867188 278.875 285.46875 279.835938 C 285.070312 280.796875 284.628906 281.734375 284.136719 282.648438 C 283.648438 283.566406 283.113281 284.457031 282.535156 285.320312 C 281.960938 286.183594 281.339844 287.019531 280.683594 287.820312 C 280.023438 288.625 279.324219 289.394531 278.589844 290.128906 C 277.855469 290.863281 277.085938 291.5625 276.285156 292.21875 C 275.480469 292.878906 274.648438 293.5 273.78125 294.074219 C 272.917969 294.652344 272.027344 295.1875 271.113281 295.675781 C 270.195312 296.167969 269.257812 296.609375 268.296875 297.007812 C 267.335938 297.40625 266.359375 297.753906 265.363281 298.058594 C 264.371094 298.359375 263.363281 298.609375 262.34375 298.8125 C 261.324219 299.015625 260.296875 299.167969 259.265625 299.269531 C 258.230469 299.371094 257.191406 299.421875 256.152344 299.421875 Z M 221.539062 218.652344 C 220.589844 218.652344 219.652344 218.746094 218.726562 218.929688 C 217.796875 219.117188 216.894531 219.390625 216.019531 219.75 C 215.144531 220.113281 214.3125 220.558594 213.527344 221.085938 C 212.738281 221.609375 212.007812 222.207031 211.339844 222.878906 C 210.671875 223.546875 210.070312 224.277344 209.546875 225.0625 C 209.019531 225.851562 208.574219 226.683594 208.214844 227.558594 C 207.851562 228.433594 207.578125 229.335938 207.390625 230.261719 C 207.207031 231.191406 207.117188 232.128906 207.117188 233.078125 L 207.117188 267.691406 C 207.117188 268.640625 207.207031 269.578125 207.390625 270.507812 C 207.578125 271.433594 207.851562 272.335938 208.214844 273.210938 C 208.574219 274.085938 209.019531 274.917969 209.546875 275.707031 C 210.070312 276.492188 210.671875 277.222656 211.339844 277.890625 C 212.007812 278.5625 212.738281 279.160156 213.527344 279.683594 C 214.3125 280.210938 215.144531 280.65625 216.019531 281.015625 C 216.894531 281.378906 217.796875 281.652344 218.726562 281.839844 C 219.652344 282.023438 220.589844 282.117188 221.539062 282.117188 L 256.152344 282.117188 C 257.101562 282.117188 258.039062 282.023438 258.96875 281.839844 C 259.894531 281.652344 260.796875 281.378906 261.671875 281.015625 C 262.546875 280.65625 263.378906 280.210938 264.167969 279.683594 C 264.953125 279.160156 265.683594 278.5625 266.351562 277.890625 C 267.023438 277.222656 267.621094 276.492188 268.144531 275.707031 C 268.671875 274.917969 269.117188 274.085938 269.480469 273.210938 C 269.839844 272.335938 270.113281 271.433594 270.300781 270.507812 C 270.484375 269.578125 270.578125 268.640625 270.578125 267.691406 L 270.578125 233.078125 C 270.578125 232.128906 270.484375 231.191406 270.300781 230.261719 C 270.113281 229.335938 269.839844 228.433594 269.480469 227.558594 C 269.117188 226.683594 268.671875 225.851562 268.144531 225.0625 C 267.621094 224.277344 267.023438 223.546875 266.351562 222.878906 C 265.683594 222.207031 264.953125 221.609375 264.167969 221.085938 C 263.378906 220.558594 262.546875 220.113281 261.671875 219.75 C 260.796875 219.390625 259.894531 219.117188 258.96875 218.929688 C 258.039062 218.746094 257.101562 218.652344 256.152344 218.652344 Z M 221.539062 218.652344 " fill-opacity="1" fill-rule="nonzero"/><g clip-path="url(#d3d18b6926)"><path fill="#2bd4b4" d="M 140.769531 299.421875 L 106.152344 299.421875 C 105.113281 299.421875 104.078125 299.371094 103.042969 299.269531 C 102.007812 299.167969 100.984375 299.015625 99.964844 298.8125 C 98.945312 298.609375 97.9375 298.359375 96.941406 298.058594 C 95.949219 297.753906 94.972656 297.40625 94.011719 297.007812 C 93.050781 296.609375 92.113281 296.167969 91.195312 295.675781 C 90.28125 295.1875 89.390625 294.652344 88.523438 294.074219 C 87.660156 293.5 86.828125 292.878906 86.023438 292.21875 C 85.222656 291.5625 84.453125 290.863281 83.71875 290.128906 C 82.980469 289.394531 82.285156 288.625 81.625 287.820312 C 80.964844 287.019531 80.347656 286.183594 79.769531 285.320312 C 79.191406 284.457031 78.660156 283.566406 78.167969 282.648438 C 77.679688 281.734375 77.234375 280.796875 76.839844 279.835938 C 76.441406 278.875 76.089844 277.898438 75.789062 276.902344 C 75.488281 275.910156 75.234375 274.902344 75.03125 273.882812 C 74.828125 272.863281 74.675781 271.835938 74.574219 270.800781 C 74.472656 269.769531 74.421875 268.730469 74.421875 267.691406 L 74.421875 233.078125 C 74.421875 232.039062 74.472656 231 74.574219 229.964844 C 74.675781 228.933594 74.828125 227.90625 75.03125 226.886719 C 75.234375 225.867188 75.488281 224.859375 75.789062 223.867188 C 76.089844 222.871094 76.441406 221.894531 76.839844 220.933594 C 77.234375 219.972656 77.679688 219.035156 78.167969 218.117188 C 78.660156 217.203125 79.191406 216.3125 79.769531 215.449219 C 80.347656 214.585938 80.964844 213.75 81.625 212.945312 C 82.285156 212.144531 82.980469 211.375 83.71875 210.640625 C 84.453125 209.90625 85.222656 209.207031 86.023438 208.546875 C 86.828125 207.890625 87.660156 207.269531 88.523438 206.695312 C 89.390625 206.117188 90.28125 205.582031 91.195312 205.09375 C 92.113281 204.601562 93.050781 204.160156 94.011719 203.761719 C 94.972656 203.363281 95.949219 203.015625 96.941406 202.710938 C 97.9375 202.410156 98.945312 202.160156 99.964844 201.957031 C 100.984375 201.753906 102.007812 201.601562 103.042969 201.5 C 104.078125 201.398438 105.113281 201.347656 106.152344 201.347656 L 140.769531 201.347656 C 141.808594 201.347656 142.84375 201.398438 143.878906 201.5 C 144.914062 201.601562 145.941406 201.753906 146.960938 201.957031 C 147.980469 202.160156 148.984375 202.410156 149.980469 202.710938 C 150.976562 203.015625 151.953125 203.363281 152.910156 203.761719 C 153.871094 204.160156 154.808594 204.601562 155.726562 205.09375 C 156.644531 205.582031 157.535156 206.117188 158.398438 206.695312 C 159.261719 207.269531 160.09375 207.890625 160.898438 208.546875 C 161.703125 209.207031 162.472656 209.90625 163.207031 210.640625 C 163.941406 211.375 164.636719 212.144531 165.296875 212.945312 C 165.957031 213.75 166.574219 214.585938 167.152344 215.449219 C 167.730469 216.3125 168.261719 217.203125 168.753906 218.117188 C 169.242188 219.035156 169.6875 219.972656 170.085938 220.933594 C 170.480469 221.894531 170.832031 222.871094 171.132812 223.867188 C 171.433594 224.859375 171.6875 225.867188 171.890625 226.886719 C 172.09375 227.90625 172.246094 228.933594 172.347656 229.964844 C 172.449219 231 172.5 232.039062 172.5 233.078125 L 172.5 267.691406 C 172.5 268.730469 172.449219 269.769531 172.347656 270.800781 C 172.246094 271.835938 172.09375 272.863281 171.890625 273.882812 C 171.6875 274.902344 171.433594 275.910156 171.132812 276.902344 C 170.832031 277.898438 170.480469 278.875 170.085938 279.835938 C 169.6875 280.796875 169.242188 281.734375 168.753906 282.648438 C 168.261719 283.566406 167.730469 284.457031 167.152344 285.320312 C 166.574219 286.183594 165.957031 287.019531 165.296875 287.820312 C 164.636719 288.625 163.941406 289.394531 163.207031 290.128906 C 162.472656 290.863281 161.703125 291.5625 160.898438 292.21875 C 160.09375 292.878906 159.261719 293.5 158.398438 294.074219 C 157.535156 294.652344 156.644531 295.1875 155.726562 295.675781 C 154.808594 296.167969 153.871094 296.609375 152.910156 297.007812 C 151.953125 297.40625 150.976562 297.753906 149.980469 298.058594 C 148.984375 298.359375 147.980469 298.609375 146.960938 298.8125 C 145.941406 299.015625 144.914062 299.167969 143.878906 299.269531 C 142.84375 299.371094 141.808594 299.421875 140.769531 299.421875 Z M 106.152344 218.652344 C 105.207031 218.652344 104.269531 218.746094 103.339844 218.929688 C 102.410156 219.117188 101.507812 219.390625 100.632812 219.75 C 99.757812 220.113281 98.929688 220.558594 98.140625 221.085938 C 97.351562 221.609375 96.625 222.207031 95.957031 222.878906 C 95.285156 223.546875 94.6875 224.277344 94.160156 225.0625 C 93.636719 225.851562 93.191406 226.683594 92.828125 227.558594 C 92.464844 228.433594 92.191406 229.335938 92.007812 230.261719 C 91.824219 231.191406 91.730469 232.128906 91.730469 233.078125 L 91.730469 267.691406 C 91.730469 268.640625 91.824219 269.578125 92.007812 270.507812 C 92.191406 271.433594 92.464844 272.335938 92.828125 273.210938 C 93.191406 274.085938 93.636719 274.917969 94.160156 275.707031 C 94.6875 276.492188 95.285156 277.222656 95.957031 277.890625 C 96.625 278.5625 97.351562 279.160156 98.140625 279.683594 C 98.929688 280.210938 99.757812 280.65625 100.632812 281.015625 C 101.507812 281.378906 102.410156 281.652344 103.339844 281.839844 C 104.269531 282.023438 105.207031 282.117188 106.152344 282.117188 L 140.769531 282.117188 C 141.714844 282.117188 142.652344 282.023438 143.582031 281.839844 C 144.511719 281.652344 145.414062 281.378906 146.289062 281.015625 C 147.164062 280.65625 147.996094 280.210938 148.78125 279.683594 C 149.570312 279.160156 150.296875 278.5625 150.96875 277.890625 C 151.636719 277.222656 152.234375 276.492188 152.761719 275.707031 C 153.289062 274.917969 153.730469 274.085938 154.09375 273.210938 C 154.457031 272.335938 154.730469 271.433594 154.914062 270.507812 C 155.101562 269.578125 155.191406 268.640625 155.191406 267.691406 L 155.191406 233.078125 C 155.191406 232.128906 155.101562 231.191406 154.914062 230.261719 C 154.730469 229.335938 154.457031 228.433594 154.09375 227.558594 C 153.730469 226.683594 153.289062 225.851562 152.761719 225.0625 C 152.234375 224.277344 151.636719 223.546875 150.96875 222.878906 C 150.296875 222.207031 149.570312 221.609375 148.78125 221.085938 C 147.996094 220.558594 147.164062 220.113281 146.289062 219.75 C 145.414062 219.390625 144.511719 219.117188 143.582031 218.929688 C 142.652344 218.746094 141.714844 218.652344 140.769531 218.652344 Z M 106.152344 218.652344 " fill-opacity="1" fill-rule="nonzero"/></g></svg>