<svg xmlns="http://www.w3.org/2000/svg" xmlns:xlink="http://www.w3.org/1999/xlink" width="51.108" height="50.74" viewBox="0 0 51.108 50.74"><defs><linearGradient id="a" x1="0.146" y1="0.146" x2="0.854" y2="0.853" gradientUnits="objectBoundingBox"><stop offset="0" stop-color="#fcfcfc"/><stop offset="1" stop-color="#e6e6e6"/></linearGradient><linearGradient id="b" x1="0.838" y1="0.838" x2="-0.064" y2="-0.064" xlink:href="#a"/><linearGradient id="c" x1="-0.155" y1="-0.155" x2="1.788" y2="1.788" gradientUnits="objectBoundingBox"><stop offset="0" stop-color="#e1e1e1"/><stop offset="1" stop-color="#ccc"/></linearGradient><linearGradient id="d" x1="-0.257" y1="-0.529" x2="0.794" y2="1.131" gradientUnits="objectBoundingBox"><stop offset="0" stop-color="#f1f1f1"/><stop offset="1" stop-color="#ccc"/></linearGradient></defs><g transform="translate(0 0)"><path d="M103.925,370.335A22.335,22.335,0,1,1,126.6,348,22.506,22.506,0,0,1,103.925,370.335Z" transform="translate(-78.382 -322.625)" fill="url(#a)"/><g transform="translate(0)"><path d="M20.86,0A21.211,21.211,0,0,1,41.851,21.242a20.9,20.9,0,0,1-20.86,21.111A21.211,21.211,0,0,1,0,21.111,20.9,20.9,0,0,1,20.86,0Z" transform="matrix(0.238, -0.971, 0.971, 0.238, 0, 40.645)" fill="url(#b)"/></g><ellipse cx="5.796" cy="5.796" rx="5.796" ry="5.796" transform="translate(19.755 12.566)" fill="url(#c)"/><path d="M112.588,362h0a10.748,10.748,0,0,0-10.748,10.748h0a2.79,2.79,0,0,0,2.79,2.825h15.86a2.79,2.79,0,0,0,2.79-2.825h0A10.748,10.748,0,0,0,112.587,362Z" transform="translate(-87.039 -337.309)" fill="url(#d)"/></g></svg>