<svg xmlns="http://www.w3.org/2000/svg" xmlns:xlink="http://www.w3.org/1999/xlink" width="66" height="66" viewBox="0 0 66 66"><defs><linearGradient id="a" x1="0.146" y1="0.146" x2="0.854" y2="0.853" gradientUnits="objectBoundingBox"><stop offset="0" stop-color="#03d5b2"/><stop offset="1" stop-color="#c9e4df"/><stop offset="1" stop-color="#e6e6e6"/></linearGradient><linearGradient id="b" x1="0.146" y1="0.146" x2="0.854" y2="0.853" gradientUnits="objectBoundingBox"><stop offset="0" stop-color="#03d5b2"/><stop offset="1" stop-color="#22d7b9"/><stop offset="1" stop-color="#e6e6e6"/></linearGradient><linearGradient id="c" x1="0.146" y1="0.146" x2="0.854" y2="0.853" gradientUnits="objectBoundingBox"><stop offset="0" stop-color="#fff"/><stop offset="1" stop-color="#e6e6e6"/></linearGradient></defs><g transform="translate(11.023 11.024)"><path d="M105.809,376.378a25.249,25.249,0,1,1,25.249-25.249A25.249,25.249,0,0,1,105.809,376.378Z" transform="translate(-83.831 -329.13)" fill="url(#a)"/><g transform="translate(-11.023 -11.024)"><circle cx="23.334" cy="23.334" r="23.334" transform="translate(0 33) rotate(-45)" fill="url(#b)"/></g><path d="M123.082,366.119l-4.91-4.91a10.71,10.71,0,1,0-2.322,2.258l4.945,4.945a1.62,1.62,0,0,0,2.286-2.293Zm-20.817-11.3a7.406,7.406,0,1,1,7.4,7.427,7.406,7.406,0,0,1-7.4-7.427Z" transform="translate(-89.314 -334.553)" fill="url(#c)"/></g></svg>