<svg xmlns="http://www.w3.org/2000/svg" width="190.474" height="158.842" viewBox="0 0 190.474 158.842"><g transform="translate(0.002 0.01)"><path d="M-878.8-71.246c10.222-5.75,19.691-10.848,28.891-16.484a19.359,19.359,0,0,1,17.608-1.8c15.027,5.213,30.143,10.146,45.221,15.219,9.136,3.079,13.033,8.727,10.925,15.742-2.338,7.731-9.468,11.13-18.4,8.612-7.347-2.083-14.695-4.166-21.914-6.645-1.763-.613-2.99-2.8-4.459-4.255,2.006-.537,4.229-1.917,5.993-1.5,7,1.712,13.864,3.987,20.777,6.044,1.278.358,2.747,1.278,3.6.882a97.2,97.2,0,0,0,8.574-5.111c-1.866-2.453-3.233-6.236-5.686-7.168-12.471-4.715-25.556-7.961-37.784-13.161-11.194-4.766-20.445-3.68-30.092,3.45-6.057,4.5-13.072,7.667-20.112,11.73l13.839,26.68c7.769,1.061,14.2,1.278,20.266,2.888,13.545,3.514,26.834,7.973,40.391,11.436a15.333,15.333,0,0,0,10.58-1.367c19.167-11.372,38.1-23.218,57.079-34.935,3.361-2.07,7.117-4.434,4.127-8.945s-7.079-4.012-11.206-1.38c-9.149,5.814-18.221,11.756-27.485,17.352-1.8,1.073-4.383.843-6.606,1.278,1.086-2.121,1.623-5.111,3.361-6.261,8.944-6.121,17.966-12.177,27.422-17.4,3.552-1.968,8.817-3.079,12.458-1.917s7.028,5.111,8.651,8.8c2.1,4.651-.294,9.341-4.664,12.062-20.739,12.931-41.477,25.837-62.484,38.334a15.666,15.666,0,0,1-10.861,1.073c-15.576-4.089-30.974-8.945-46.512-13.212-2.952-.818-6.249-.409-11.053-.664,5.98,7.743,2.223,10.337-3.143,12.778-6.2,2.76-12.254,5.891-18.221,9.123-3.706,2.006-6.006,1.814-8.088-2.351q-11.5-23.077-23.588-45.86c-2.16-4.076-1.061-6.121,2.9-7.795,6.236-2.658,12.42-5.482,18.5-8.5C-885.211-76.983-880.688-79.436-878.8-71.246Zm-6.287,1.278-20.3,9.43,23,44.723,20.2-10.222Z" transform="translate(912.48 167.556)" fill="#03d5b2"/><path d="M-765.4-108.682a4.18,4.18,0,0,1,0-1.278c.779-2.556,1.508-7.092,2.428-7.13,5.3-.23,3.974,4.421,4.114,7.45.933,20.56-14.375,37.848-34.053,38.679-21.914.933-38.9-14.426-39.612-35.868a36.57,36.57,0,0,1,10.017-26.415,36.571,36.571,0,0,1,25.85-11.4c6.108-.077,12.369,2.377,18.324,4.357,1.648.562,2.453,3.629,3.642,5.546-2.236,0-4.8.856-6.645,0-17.646-7.973-36.622-.549-42.857,17.007a30.552,30.552,0,0,0,8.012,32.137,30.041,30.041,0,0,0,33.223,5.431C-771.792-85.209-765.186-95.9-765.4-108.682Z" transform="translate(934.685 152.616)" fill="#03d5b2"/><path d="M-797.569-100.481c13.046-15.679,26.144-31.574,39.509-47.278,1.444-1.687,4.357-2.121,6.593-3.131-.575,2.492-.383,5.584-1.827,7.373-13.225,16.356-26.834,32.4-40.1,48.722-3.182,3.91-5.584,4.485-9.072.537-4.638-5.252-9.762-10.082-14.324-15.41-1.188-1.38-1.061-3.833-1.533-5.891,2.134.549,4.779.5,6.312,1.763C-807.1-109.732-802.578-105.2-797.569-100.481Z" transform="translate(938.638 150.88)" fill="#03d5b2"/><path d="M-884.2-36.978c-1.814-2.249-3.833-3.718-3.667-4.792a5.877,5.877,0,0,1,3.463-3.936c.933-.268,3.616,1.955,3.642,3.105C-880.7-41.08-882.5-39.521-884.2-36.978Z" transform="translate(919.315 180.094)" fill="#03d5b2"/></g></svg>