<svg xmlns="http://www.w3.org/2000/svg" width="169.003" height="169.016" viewBox="0 0 169.003 169.016"><path d="M-683.137-44h9.317a24.062,24.062,0,0,0,3.021,1.185A34.328,34.328,0,0,1-644.177-9.779c.28,10.835-4.379,19.487-11.247,26.927,5.111,2.942,9.584,5.763,14.309,8.106a19.393,19.393,0,0,0,8.332,2.343c5.724,0,11.434-1.145,17.171-1.438,11.207-.572,11.261-.28,11.5,11.167a21.9,21.9,0,0,0,2.036,9.823c2.023,3.7,5.324,6.655,8.08,10.009V73.132c-1.611,2.582-2.662,6.149-4.938,7.547-5.045,3.075-5.444,7.228-5.324,12.312.226,11.727,0,11.58-11.633,12.059-22.082.892-42.594,6.655-60.616,19.966H-680.5c-7.081-3.993-13.9-8.505-21.3-11.753-13.723-6.03-28.351-8.4-43.312-8.332-5.684,0-8.186-2.289-7.76-7.986a43.422,43.422,0,0,0,0-8.625,11.648,11.648,0,0,0-2.143-4.991c-2.5-3.5-5.324-6.815-7.986-10.2V57.16c1.664-2.556,2.755-6.07,5.1-7.441,4.925-2.888,5.63-6.828,5.138-11.727a50.726,50.726,0,0,1,0-5.324c-.28-4.845,2.01-7.015,6.775-6.655,6.828.506,13.656,1.131,20.511,1.5,2.542.146,5.537.519,7.614-.572,5.55-2.9,10.648-6.549,16.172-9.983-1.411-1.677-2.849-3.328-4.073-5.058-11.7-15.826-8.772-37.4,7.188-48.889C-694.132-40.246-688.342-41.711-683.137-44ZM-742.795,95.241a129.377,129.377,0,0,1,59.657,16.132c0-15.666-.905-30.321.293-44.8.918-11.221-3.461-16.758-13.231-20.738-15.081-6.149-30.374-10.316-46.786-9.916-.8,5.75-1.052,9.9,4.366,13.71,7.627,5.324,7.587,25.836,0,31.306C-744.126,84.952-743.633,89.358-742.795,95.241Zm68.975,16.2a128.965,128.965,0,0,1,59.538-16.225c1.158-8.985,1.158-8.985-4.432-14.176-6.908-6.4-7.241-26.262.359-31.546,5.763-3.993,5.018-8.266,3.993-13.776-16.319.133-31.346,3.9-46.081,9.876-9.943,3.993-14.775,9.45-13.7,21.164C-672.782,81.118-673.82,95.76-673.82,111.44ZM-703.289-8.927a24.771,24.771,0,0,0,7.26,17.574,24.771,24.771,0,0,0,17.578,7.25,24.8,24.8,0,0,0,17.541-7.3,24.8,24.8,0,0,0,7.23-17.568c0-13.87-11.806-25.822-25.157-25.463a25.516,25.516,0,0,0-24.438,25.5ZM-650.766,30.9c-13.044-8.186-44.137-7.986-55.225.067,8.319,4.1,16.745,8.359,25.29,12.339a6.482,6.482,0,0,0,4.832-.226c8.4-3.9,16.691-8.053,25.117-12.179Zm-92.268,34.421c0-1.1.426-2.462-.08-3.261-1.424-2.329-3.221-4.432-4.872-6.655-1.837,2.09-4.339,3.9-5.324,6.336a11.5,11.5,0,0,0,0,7.813c.918,2.263,3.447,3.873,5.324,5.777a55.308,55.308,0,0,0,4.832-6.109C-742.555,68.274-743.034,66.65-743.034,65.319Zm129.245-.346h-.133c0,1.77-.559,3.82.146,5.244.958,1.943,2.769,4.605,4.432,4.765s4.925-2.13,5.191-3.74a35.832,35.832,0,0,0-.24-12.379c-.266-1.411-3.3-3.314-4.9-3.168s-3.5,2.316-4.392,3.993c-.679,1.464-.107,3.514-.107,5.284Z" transform="translate(763 44)" fill="#03d5b2"/></svg>