<svg xmlns="http://www.w3.org/2000/svg" width="42.27" height="42.252" viewBox="0 0 42.27 42.252"><g transform="translate(0 0)"><path d="M200.528,329.1c-3.5-.226-5.233-1.965-5.4-5.4q.2-4.071,0-8.125c.122-2.237.857-4.111,3.146-4.941a14.726,14.726,0,0,1,2.261-.452c2.714.131,5.427.124,8.125,0,3.761.337,5.3,2.488,5.4,5.622a75.5,75.5,0,0,0,0,7.673c-.167,3.618-1.843,5.375-5.4,5.622Q204.6,328.909,200.528,329.1Z" transform="translate(-195.111 -286.868)" fill="#fff"/><path d="M306.694,226.055a9.485,9.485,0,0,1-8.564-8.788,2.374,2.374,0,0,0,0-1.341,9.457,9.457,0,0,1,6.418-8.367,17.962,17.962,0,0,1,2.148-.43,4.206,4.206,0,0,0,1.793,0c4.272.2,8.408,4.308,8.564,8.566a4.169,4.169,0,0,0,0,1.793,9.489,9.489,0,0,1-8.792,8.562A3.367,3.367,0,0,0,306.694,226.055Z" transform="translate(-274.818 -207.122)" fill="#fff"/><path d="M210.638,207.113c1.1.475,1.583,1.264,1.079,2.162a23.82,23.82,0,0,1-2.313,3.693,1.3,1.3,0,0,1-1.75.5,1.532,1.532,0,0,1-.925-1.809c.052-.251.452-.5.1-.789s-.645.05-.918.158a11.682,11.682,0,0,0-7.481,8.781,2.35,2.35,0,0,1-.172.4c-.3.348-.17.73-.088,1.11a2.984,2.984,0,0,1-.179,1.526c-.335.631-.721,1.088-1.513,1.018a1.36,1.36,0,0,1-1.4-1.189,3.367,3.367,0,0,0,0-1.567,1.131,1.131,0,0,1,.17-.941c.258-.269.113-.572.07-.864A14.8,14.8,0,0,1,206.7,207.538a7.507,7.507,0,0,1,2.6-.43,2.449,2.449,0,0,0,1.341,0Z" transform="translate(-195.044 -207.093)" fill="#fff"/><path d="M308.806,336.791c-1.187-.511-1.531-1.287-.948-2.356.624-1.149,1.289-2.277,2-3.372.744-1.131,1.886-1.065,2.736.122a5.087,5.087,0,0,0,0,1.336c-.389.762.02.755.552.541a12.334,12.334,0,0,0,7.874-8.878,4.614,4.614,0,0,1,.192-.511c.271-.269.127-.568.059-.859,0-1.052-.158-2.162,1.1-2.693a1.728,1.728,0,0,0,1.115.023,1.244,1.244,0,0,1,.875,1.09,3.337,3.337,0,0,0,0,1.567,1.158,1.158,0,0,1-.17.941c-.258.269-.113.572-.07.864q-2.322,9.624-11.945,11.947c-.375-.054-.76-.212-1.1.1a.758.758,0,0,1-.708.129A3.359,3.359,0,0,0,308.806,336.791Z" transform="translate(-282.132 -294.56)" fill="#fff"/><path d="M227.2,310.172a17.29,17.29,0,0,1-4.57.161,9.9,9.9,0,0,1-3.555-.163Z" transform="translate(-213.637 -286.861)" fill="#fff"/><path d="M195.162,334a13.4,13.4,0,0,1,.163,4.12,12.738,12.738,0,0,1-.165,4Q195.16,338.071,195.162,334Z" transform="translate(-195.134 -305.302)" fill="#fff"/><path d="M219,393.028a2.674,2.674,0,0,1,1.75-.172c2.126.077,4.26-.249,6.373.172Z" transform="translate(-213.583 -350.8)" fill="#fff"/><path d="M278,342.743a9.95,9.95,0,0,1-.163-3.555A13.389,13.389,0,0,1,278,335.07Z" transform="translate(-259.051 -306.13)" fill="#fff"/><path d="M337.863,207.16a1.9,1.9,0,0,1-1.793,0Z" transform="translate(-304.179 -207.145)" fill="#fff"/><path d="M381.065,246.863a1.888,1.888,0,0,1,0-1.793Z" transform="translate(-338.824 -236.482)" fill="#fff"/><path d="M329.082,370.426a1.183,1.183,0,0,1,0-1.336A1.377,1.377,0,0,1,329.082,370.426Z" transform="translate(-298.611 -332.457)" fill="#fff"/><path d="M195.18,269a1.538,1.538,0,0,1,0,1.567Z" transform="translate(-195.149 -255.001)" fill="#fff"/><path d="M336,290.086a1.538,1.538,0,0,1,1.567,0Z" transform="translate(-304.125 -271.152)" fill="#fff"/><path d="M381.086,326.637a1.537,1.537,0,0,1,0-1.567Q381.088,325.848,381.086,326.637Z" transform="translate(-338.849 -298.391)" fill="#fff"/><path d="M313,393.109a1.54,1.54,0,0,1,1.565,0Z" transform="translate(-286.326 -350.879)" fill="#fff"/><path d="M259.419,207.18a1.131,1.131,0,0,1-1.339,0Z" transform="translate(-243.825 -207.16)" fill="#fff"/><path d="M298.16,246a1.131,1.131,0,0,1,0,1.341Z" transform="translate(-274.842 -237.202)" fill="#fff"/><path d="M196,261.05c.133.3.452.617-.07.864Z" transform="translate(-195.73 -248.848)" fill="#fff"/><path d="M208.107,266.2c-.251-.393-.341-.771.088-1.11Z" transform="translate(-204.99 -251.975)" fill="#fff"/><path d="M374.185,319.812a.846.846,0,0,1-1.115-.023A1.5,1.5,0,0,1,374.185,319.812Z" transform="translate(-332.812 -294.23)" fill="#fff"/><path d="M367.959,332c.226.3.353.6-.059.859Z" transform="translate(-328.811 -303.754)" fill="#fff"/><path d="M380.083,337.044c-.21-.308-.339-.608.07-.864Z" transform="translate(-338.086 -306.989)" fill="#fff"/><path d="M323.08,392.2c.328-.436.708-.337,1.1-.1Z" transform="translate(-294.126 -350.108)" fill="#fff"/></g></svg>