<svg xmlns="http://www.w3.org/2000/svg" xmlns:xlink="http://www.w3.org/1999/xlink" width="500" zoomAndPan="magnify" viewBox="0 0 375 374.999991" height="500" preserveAspectRatio="xMidYMid meet" version="1.0"><defs><clipPath id="8fd9028cd9"><path d="M 79 89 L 296 89 L 296 295.363281 L 79 295.363281 Z M 79 89 " clip-rule="nonzero"/></clipPath><clipPath id="95e8572e65"><path d="M 175 54.613281 L 200 54.613281 L 200 138 L 175 138 Z M 175 54.613281 " clip-rule="nonzero"/></clipPath></defs><g clip-path="url(#8fd9028cd9)"><path fill="#2bd4b4" d="M 187.5 295.585938 C 247.097656 295.585938 295.589844 247.097656 295.589844 187.496094 C 295.589844 146.3125 271.648438 108.160156 234.601562 90.308594 C 228.8125 87.507812 221.828125 89.9375 219.035156 95.746094 C 216.238281 101.550781 218.675781 108.519531 224.476562 111.3125 C 253.511719 125.304688 272.269531 155.210938 272.269531 187.496094 C 272.269531 234.238281 234.246094 272.265625 187.5 272.265625 C 140.757812 272.265625 102.730469 234.238281 102.730469 187.496094 C 102.730469 155.210938 121.488281 125.304688 150.519531 111.3125 C 156.320312 108.519531 158.757812 101.546875 155.957031 95.746094 C 153.164062 89.945312 146.195312 87.507812 140.394531 90.308594 C 103.347656 108.160156 79.410156 146.316406 79.410156 187.496094 C 79.410156 247.097656 127.898438 295.585938 187.5 295.585938 Z M 187.5 295.585938 " fill-opacity="1" fill-rule="nonzero"/></g><g clip-path="url(#95e8572e65)"><path fill="#2bd4b4" d="M 187.5 137.167969 C 193.941406 137.167969 199.160156 131.949219 199.160156 125.507812 L 199.160156 66.273438 C 199.160156 59.832031 193.941406 54.613281 187.5 54.613281 C 181.058594 54.613281 175.839844 59.832031 175.839844 66.273438 L 175.839844 125.507812 C 175.839844 131.949219 181.058594 137.167969 187.5 137.167969 Z M 187.5 137.167969 " fill-opacity="1" fill-rule="nonzero"/></g></svg>